<svg xmlns="http://www.w3.org/2000/svg" viewBox="0 0 190.36 190.7"><defs><style>.cls-1{fill:#ccc;}.cls-2{fill:#e6e6e6;}.cls-3{fill:#b3b3b3;}.cls-4{fill:#f2f2f2;stroke:#b3b3b3;stroke-miterlimit:10;stroke-width:3px;}</style></defs><title>Asset 31</title><g id="Layer_2" data-name="Layer 2"><g id="Layer_1-2" data-name="Layer 1"><ellipse class="cls-1" cx="130.17" cy="130.51" rx="80.31" ry="28.16" transform="translate(-54.16 130.27) rotate(-45)"/><path class="cls-2" d="M140.84,8.61a29.14,29.14,0,0,1,7.86,15.54A51.43,51.43,0,0,1,148.43,43c-3.68,20.46-17.39,45-38.91,66.5s-46,35.23-66.5,38.91a50,50,0,0,1-20.42-.06,28.77,28.77,0,0,1-14-7.53c-19.21-19.21-5.2-64.4,31.32-100.91S121.63-10.6,140.84,8.61Z"/><path class="cls-2" d="M180.85,48.62c16,16-.71,58.49-37.22,95s-79,53.18-95,37.22a21,21,0,0,1-5.7-12.16s26.6,12.45,82.46-43.41S167.3,42.75,167.3,42.75C172.82,43.3,177.44,45.21,180.85,48.62Z"/><path class="cls-3" d="M148.7,24.15l18.6,18.6s18.09,30.82-37.77,86.68-86.45,39.42-86.45,39.42L22.6,148.37a50,50,0,0,0,20.42.06c20.46-3.68,45-17.39,66.5-38.91s35.23-46,38.91-66.5A51.43,51.43,0,0,0,148.7,24.15Z"/><path class="cls-4" d="M123.68,11.86A20.45,20.45,0,0,1,129.25,24a42.35,42.35,0,0,1-1.18,15.26C124.06,56,111.73,76.53,93.25,95s-39,30.81-55.73,34.82a40.76,40.76,0,0,1-16.5,1,20,20,0,0,1-10.92-5.38c-14.56-14.56-.94-51.79,30.43-83.15S109.12-2.7,123.68,11.86Z"/></g></g></svg>