<svg xmlns="http://www.w3.org/2000/svg" viewBox="0 0 190.7 190.36"><defs><style>.cls-1{fill:#ccc;}.cls-2{fill:#f25f5f;}.cls-3{fill:#db5a5a;}.cls-4{fill:#f66;stroke:#db5a5a;stroke-miterlimit:10;stroke-width:3px;}</style></defs><title>Asset 61</title><g id="Layer_2" data-name="Layer 2"><g id="Layer_1-2" data-name="Layer 1"><ellipse class="cls-1" cx="60.19" cy="130.17" rx="28.16" ry="80.31" transform="translate(-74.41 80.69) rotate(-45)"/><path class="cls-2" d="M182.09,140.84a29.14,29.14,0,0,1-15.54,7.86,51.43,51.43,0,0,1-18.87-.27c-20.45-3.68-45-17.39-66.5-38.91S46,63.48,42.27,43a50.13,50.13,0,0,1,.06-20.42,28.77,28.77,0,0,1,7.53-14c19.22-19.21,64.4-5.2,100.91,31.32S201.3,121.63,182.09,140.84Z"/><path class="cls-2" d="M142.08,180.85c-16,16-58.49-.71-95-37.22s-53.19-79-37.23-95A21,21,0,0,1,22,42.92S9.56,69.52,65.42,125.38,148,167.3,148,167.3C147.41,172.82,145.49,177.44,142.08,180.85Z"/><path class="cls-3" d="M166.55,148.7,148,167.3s-30.82,18.09-86.68-37.77S21.85,43.08,21.85,43.08L42.33,22.6A50.13,50.13,0,0,0,42.27,43C46,63.48,59.66,88,81.18,109.52s46.05,35.23,66.5,38.91A51.43,51.43,0,0,0,166.55,148.7Z"/><path class="cls-4" d="M178.85,123.68a20.5,20.5,0,0,1-12.17,5.57,42.37,42.37,0,0,1-15.26-1.18c-16.72-4-37.24-16.34-55.73-34.82s-30.8-39-34.82-55.73a40.57,40.57,0,0,1-1-16.5A19.88,19.88,0,0,1,65.26,10.1c14.56-14.56,51.79-.94,83.16,30.43S193.4,109.12,178.85,123.68Z"/></g></g></svg>