<svg xmlns="http://www.w3.org/2000/svg" viewBox="0 0 646 697.65">
    <defs>
        <style>
            .cls-1{fill:#e6e6e6}.cls-4{fill:#fff}.cls-10{fill:#f2f2f2}.cls-6,.cls-7{fill:none}.cls-7{stroke:#fff;stroke-width:5px;opacity:.8}.cls-10,.cls-7{stroke-miterlimit:10}.cls-8{fill:#ccc}.cls-9{fill:#b3b3b3}.cls-10{stroke:#b3b3b3;stroke-width:3px}
        </style>
    </defs>
    <title>
        wecker_grau
    </title>
    <g id="Layer_2" data-name="Layer 2">
        <g id="Layer_1-2" data-name="Layer 1">
            <path class="cls-1" d="M598.37,697.65H47.63c-33.53,0-56.41-32-44.38-61.52.13-.33.27-.67.42-1l95-217.86A141.51,141.51,0,0,0,108.33,433a178.83,178.83,0,0,0,39.15,39.52c43.66,32.71,106.13,53.18,175.52,53.18,68.89,0,131-20.18,174.57-52.47a181.35,181.35,0,0,0,39.08-38.78,145.38,145.38,0,0,0,10.73-17.13l95,217.86c.15.33.29.67.42,1C654.78,665.63,631.9,697.65,598.37,697.65Z"/>
            <path d="M642.75,636.13a47.47,47.47,0,0,1-44.38,30.37H47.63a47.56,47.56,0,0,1-44-65.79L89.13,394.4a127.4,127.4,0,0,0,9.49,22.87A141.51,141.51,0,0,0,108.33,433a178.83,178.83,0,0,0,39.15,39.52c43.66,32.71,106.13,53.18,175.52,53.18,68.89,0,131-20.18,174.57-52.47a181.35,181.35,0,0,0,39.08-38.78,145.38,145.38,0,0,0,10.73-17.13,127.4,127.4,0,0,0,9.49-22.87l85.46,206.31A47.13,47.13,0,0,1,642.75,636.13Z" style="fill:#ffd694"/>
            <path d="M541.13,490.68a23.44,23.44,0,0,1-1.42,3.73c-4.77,9.84-16.55,17.24-31.23,17.24H120.85c-14.69,0-26.47-7.4-31.24-17.24a22,22,0,0,1,.29-20.11L90,474,110,435.21l3.66-7.13,6-11.62,20.72-40.35c9.31,63.51,87.84,113.1,183.34,113.1,83.85,0,154.61-38.23,176.93-90.54L517,430.6l6,11.68,2.81,5.48,13.63,26.54A21.92,21.92,0,0,1,541.13,490.68Z" style="fill:#999;opacity:.31"/>
            <path class="cls-4" d="M147.48,472.47C123.14,489,102,495.44,93.62,487S91.68,457.38,108.33,433A178.83,178.83,0,0,0,147.48,472.47Z"/>
            <path class="cls-4" d="M550.38,487c-8.29,8.29-28.92,2.17-52.81-13.85a181.35,181.35,0,0,0,39.08-38.78C552.58,458.22,558.65,478.76,550.38,487Z"/>
            <path d="M551,310.32a145,145,0,0,0-20-31.72c-41.07-50.13-118.84-84-208-84s-166.95,33.82-208,84a145,145,0,0,0-20,31.72l16.57-74.14,1.33-5.93.14-.63v-.06a108.51,108.51,0,0,1,7.1-22.25c1.19-2.71,2.5-5.4,3.91-8,12.55-23.52,33.55-44.2,60.46-60.28q4.19-2.51,8.56-4.86h0a235.85,235.85,0,0,1,24.32-11.31c1-.41,2-.81,3.07-1.2q8.25-3.16,16.94-5.82,4.68-1.44,9.48-2.71h0q6.52-1.74,13.26-3.19c2.54-.55,5.11-1.06,7.69-1.54a305.83,305.83,0,0,1,110.26,0q3.83.72,7.59,1.52,7.14,1.53,14,3.4,4.83,1.29,9.55,2.75,9.4,2.91,18.3,6.41c1.45.58,2.89,1.16,4.32,1.76a230.42,230.42,0,0,1,24.89,12.1q5,2.82,9.78,5.87c23,14.69,41.36,32.87,53.21,53.34q2.64,4.53,4.83,9.2a109.92,109.92,0,0,1,8.21,24.51c0,.11,0,.23.07.34v.06l1.46,6.52Z" style="fill:#f2f2f2"/>
            <polygon class="cls-6" points="409.84 413.71 303.38 373.21 303.38 296.08 333.8 296.08 333.8 363.57 425.05 397.9 409.84 413.71"/>
            <path class="cls-6" d="M551,310.32a145,145,0,0,0-20-31.72c-26.85-32.77-69.39-58.58-120.54-72.51a332.51,332.51,0,0,0-83.31-11.42l-3.67,0-4.17,0a332.66,332.66,0,0,0-83.81,11.42C184.37,220,141.83,245.83,115,278.6a145,145,0,0,0-20,31.72,119.66,119.66,0,0,0-11,49.31v.52a117.36,117.36,0,0,0,5.13,34.25,127.4,127.4,0,0,0,9.49,22.87A141.51,141.51,0,0,0,108.33,433c.54.76,1.08,1.51,1.64,2.26a180.35,180.35,0,0,0,37.51,37.26c22.09,16.55,49,30,79.16,39.18q5.13,1.58,10.4,3a340.65,340.65,0,0,0,171.89,0q5.26-1.41,10.4-3c29.76-9.08,56.33-22.25,78.24-38.47a190.83,190.83,0,0,0,28.22-25.42,161,161,0,0,0,10.86-13.36,145.38,145.38,0,0,0,10.73-17.13,127.4,127.4,0,0,0,9.49-22.87A117.36,117.36,0,0,0,562,360.15v-.52A119.66,119.66,0,0,0,551,310.32ZM139.39,363.43c0-69.47,82.5-125.78,184.27-125.78S507.93,294,507.93,363.43a89.18,89.18,0,0,1-7.34,35.24c-22.32,52.31-93.08,90.54-176.93,90.54-95.5,0-174-49.59-183.34-113.1A86.14,86.14,0,0,1,139.39,363.43Z"/>
            <polygon class="cls-7" points="333.8 363.57 425.05 397.9 409.84 413.71 303.38 373.21 303.38 296.08 333.8 296.08 333.8 363.57"/>
            <path class="cls-7" d="M531.9,314.49a132.62,132.62,0,0,0-18.29-29.07C476,239.49,404.72,208.5,323,208.5s-153,31-190.61,76.92a132.62,132.62,0,0,0-18.29,29.07A109.55,109.55,0,0,0,104,359.67v.48a107.44,107.44,0,0,0,4.7,31.38,116.55,116.55,0,0,0,8.7,21c.71,1.33,1.44,2.66,2.2,4q3.08,5.3,6.69,10.4a164.2,164.2,0,0,0,35.88,36.21c37.94,28.42,91.39,46.77,151.05,48.58q4.86.15,9.78.15t9.81-.15C392,509.84,445.08,491.77,483,463.72a167.77,167.77,0,0,0,34-33.12c.61-.8,1.2-1.6,1.79-2.41a134,134,0,0,0,9.83-15.7,116.55,116.55,0,0,0,8.7-21,107.44,107.44,0,0,0,4.7-31.38v-.48A109.55,109.55,0,0,0,531.9,314.49ZM323.66,489.21c-95.5,0-174-49.59-183.34-113.1a86.14,86.14,0,0,1-.93-12.68c0-69.47,82.5-125.78,184.27-125.78S507.93,294,507.93,363.43a89.18,89.18,0,0,1-7.34,35.24C478.27,451,407.51,489.21,323.66,489.21Z"/>
            <path class="cls-6" d="M556.87,394.4A117.36,117.36,0,0,0,562,360.15v-.52a119.66,119.66,0,0,0-11-49.31,145,145,0,0,0-20-31.72c-26.85-32.77-69.39-58.58-120.54-72.51a332.51,332.51,0,0,0-83.31-11.42l-3.67,0-4.17,0a332.66,332.66,0,0,0-83.81,11.42C184.37,220,141.83,245.83,115,278.6a145,145,0,0,0-20,31.72,119.66,119.66,0,0,0-11,49.31v.52a117.36,117.36,0,0,0,5.13,34.25"/>
            <path class="cls-4" d="M89.39,394.47a118.76,118.76,0,0,1-5.1-21.69,116.79,116.79,0,0,1-.76-22.36,123.6,123.6,0,0,1,11-43.46,151.11,151.11,0,0,1,25-37.43,191.94,191.94,0,0,1,16-15.87,214.48,214.48,0,0,1,17.73-13.92q9.21-6.51,19-12.1t20.08-10.21q10.26-4.63,20.84-8.51c7.06-2.52,14.2-4.84,21.43-6.87a337.81,337.81,0,0,1,177.78,0c7.22,2,14.36,4.35,21.42,6.87s14,5.42,20.85,8.51a236.83,236.83,0,0,1,39.08,22.31,216.16,216.16,0,0,1,17.73,13.92,193.46,193.46,0,0,1,16,15.87,150.71,150.71,0,0,1,25,37.43,123.29,123.29,0,0,1,11,43.45,116.79,116.79,0,0,1-.76,22.36,119.57,119.57,0,0,1-5.09,21.69l-.48-.14a116.85,116.85,0,0,0,4.68-43.78,121.24,121.24,0,0,0-11.71-42.44,149,149,0,0,0-25-36.36,185,185,0,0,0-15.94-15.36A208.63,208.63,0,0,0,491.54,243c-24.4-16.7-51.91-28.58-80.39-36.35a341.21,341.21,0,0,0-175.3,0c-28.48,7.77-56,19.65-80.4,36.35a211.9,211.9,0,0,0-17.6,13.44,189.48,189.48,0,0,0-15.94,15.36,149,149,0,0,0-25,36.36,121.25,121.25,0,0,0-11.72,42.44,117.06,117.06,0,0,0,4.69,43.78Z"/>
            <path id="Pfad_405" data-name="Pfad 405" class="cls-4" d="M323.66,206.21h-.23C196.22,206.3,93.2,276.76,93.32,363.59c0,23,7.29,44.81,20.31,64.49,25.69,38.82,73.8,69.24,133,83.57q6.75,1.64,13.67,3a336.12,336.12,0,0,0,126.66,0q6.92-1.35,13.66-3c51.81-12.54,95.09-37.38,122.32-69.37,19.72-23.18,31-50.12,31-78.85C554,276.6,450.87,206.21,323.66,206.21ZM139.39,363.43c0-69.47,82.5-125.78,184.27-125.78S507.93,294,507.93,363.43a89.18,89.18,0,0,1-7.34,35.24c-22.32,52.31-93.08,90.54-176.93,90.54-95.5,0-174-49.59-183.34-113.1A86.14,86.14,0,0,1,139.39,363.43Z"/>
            <path class="cls-6" d="M323.66,237.65c-101.77,0-184.27,56.31-184.27,125.78a86.14,86.14,0,0,0,.93,12.68c9.31,63.51,87.84,113.1,183.34,113.1,83.85,0,154.61-38.23,176.93-90.54a89.18,89.18,0,0,0,7.34-35.24C507.93,294,425.43,237.65,323.66,237.65Zm-20.28,58.43H333.8v67.49l91.25,34.33-15.21,15.81-106.46-40.5Z"/>
            <polygon class="cls-6" points="409.84 413.71 303.38 373.21 303.38 296.08 333.8 296.08 333.8 363.57 425.05 397.9 409.84 413.71"/>
            <path class="cls-6" d="M80.32,206.09V514.63H567V206.09Zm60,170a86.14,86.14,0,0,1-.93-12.68c0-69.47,82.5-125.78,184.27-125.78S507.93,294,507.93,363.43a89.18,89.18,0,0,1-7.34,35.24c-22.32,52.31-93.08,90.54-176.93,90.54C228.16,489.21,149.63,439.62,140.32,376.11Z"/>
            <polygon class="cls-4" points="425.05 397.9 409.84 413.71 303.38 373.21 303.38 296.08 333.8 296.08 333.8 363.57 425.05 397.9"/>
            <line class="cls-6" x1="242" y1="40.43" x2="242" y2="29.65"/>
            <line class="cls-6" x1="242" y1="84.65" x2="242" y2="69.39"/>
            <line class="cls-6" x1="419" y1="84.65" x2="419" y2="68.06"/>
            <line class="cls-6" x1="419" y1="41.76" x2="419" y2="29.65"/>
            <ellipse class="cls-8" cx="491.08" cy="182.09" rx="28.16" ry="80.31" transform="translate(15.08 400.58) rotate(-45)"/>
            <path class="cls-1" d="M613,192.76a29.14,29.14,0,0,1-15.54,7.86,51.43,51.43,0,0,1-18.87-.27c-20.46-3.68-45-17.39-66.5-38.91s-35.23-46-38.91-66.5a49.91,49.91,0,0,1,.06-20.41,28.68,28.68,0,0,1,7.53-14c19.21-19.21,64.4-5.2,100.91,31.32S632.19,173.55,613,192.76Z"/>
            <path class="cls-1" d="M573,232.77c-16,16-58.48-.71-95-37.22s-53.18-79.05-37.22-95a21,21,0,0,1,12.16-5.71s-12.45,26.6,43.41,82.46,82.53,41.92,82.53,41.92C578.29,224.74,576.37,229.36,573,232.77Z"/>
            <path class="cls-9" d="M597.44,200.62l-18.6,18.6s-30.82,18.1-86.68-37.77S452.74,95,452.74,95l20.48-20.47a49.91,49.91,0,0,0-.06,20.41c3.68,20.46,17.39,45,38.91,66.5s46,35.23,66.5,38.91A51.43,51.43,0,0,0,597.44,200.62Z"/>
            <path class="cls-10" d="M609.73,175.6a20.39,20.39,0,0,1-12.16,5.57A42.35,42.35,0,0,1,582.31,180c-16.72-4-37.25-16.34-55.73-34.82s-30.81-39-34.82-55.73a40.72,40.72,0,0,1-1-16.49A19.92,19.92,0,0,1,496.15,62c14.55-14.56,51.79-.94,83.15,30.43S624.29,161,609.73,175.6Z"/>
            <ellipse class="cls-8" cx="323.26" cy="127.86" rx="80.31" ry="28.16"/>
            <path class="cls-1" d="M417,49.21a29.19,29.19,0,0,1-5.43,16.55A51.54,51.54,0,0,1,398,78.91C381,90.77,353.93,98.42,323.5,98.42S266,90.77,249,78.91a50,50,0,0,1-14.39-14.48A28.67,28.67,0,0,1,230,49.21C230,22,271.86,0,323.5,0S417,22,417,49.21Z"/>
            <path class="cls-1" d="M417,105.8c0,22.56-41.86,40.85-93.5,40.85S230,128.36,230,105.8a21,21,0,0,1,4.57-12.64s10,27.61,89,27.61,88-28.71,88-28.71C415.09,96.35,417,101,417,105.8Z"/>
            <path class="cls-9" d="M411.57,65.76v26.3s-9,34.59-88,34.59-89-33.26-89-33.26v-29A50,50,0,0,0,249,78.91C266,90.77,293.07,98.42,323.5,98.42S381,90.77,398,78.91A51.54,51.54,0,0,0,411.57,65.76Z"/>
            <path class="cls-10" d="M402.57,39.37a20.39,20.39,0,0,1-4.67,12.54,42.1,42.1,0,0,1-11.62,10c-14.66,9-37.89,14.78-64,14.78s-49.36-5.8-64-14.78a40.8,40.8,0,0,1-12.36-11,19.93,19.93,0,0,1-3.92-11.53c0-20.58,35.95-37.28,80.31-37.28S402.57,18.79,402.57,39.37Z"/>
            <ellipse class="cls-8" cx="156.77" cy="183.91" rx="80.31" ry="28.16" transform="translate(-84.13 164.72) rotate(-45)"/>
            <path class="cls-1" d="M167.44,62a29.14,29.14,0,0,1,7.86,15.54A51.43,51.43,0,0,1,175,96.42c-3.68,20.46-17.39,45-38.91,66.5s-46.05,35.23-66.5,38.91a50,50,0,0,1-20.42-.06,28.65,28.65,0,0,1-14-7.53C16,175,30,129.84,66.53,93.33S148.23,42.8,167.44,62Z"/>
            <path class="cls-1" d="M207.45,102c16,16-.71,58.48-37.23,95s-79,53.18-95,37.22a21,21,0,0,1-5.7-12.16s26.6,12.45,82.46-43.41S193.9,96.15,193.9,96.15C199.42,96.7,204,98.62,207.45,102Z"/>
            <path class="cls-9" d="M175.3,77.55l18.6,18.6S212,127,156.13,182.83s-86.45,39.42-86.45,39.42L49.2,201.77a50,50,0,0,0,20.42.06c20.45-3.68,45-17.39,66.5-38.91s35.23-46,38.91-66.5A51.43,51.43,0,0,0,175.3,77.55Z"/>
            <path class="cls-10" d="M150.28,65.26a20.38,20.38,0,0,1,5.56,12.16,42.11,42.11,0,0,1-1.17,15.26c-4,16.72-16.34,37.25-34.82,55.73s-39,30.81-55.73,34.82a40.76,40.76,0,0,1-16.5,1,19.89,19.89,0,0,1-10.92-5.38c-14.56-14.55-.94-51.79,30.43-83.15S135.72,50.7,150.28,65.26Z"/>
        </g>
    </g>
</svg>
