<svg xmlns="http://www.w3.org/2000/svg" viewBox="0 0 646 594.3"><defs><style>.cls-1{fill:#e6e6e6;}.cls-2{fill:#ffd694;}.cls-3{fill:#999;opacity:0.31;}.cls-4{fill:#fff;}.cls-5{fill:#f2f2f2;}.cls-6,.cls-7{fill:none;}.cls-7{stroke:#fff;stroke-miterlimit:10;stroke-width:5px;opacity:0.8;}</style></defs><title>Asset 66</title><g id="Layer_2" data-name="Layer 2"><g id="Layer_1-2" data-name="Layer 1"><path class="cls-1" d="M598.37,594.3H47.63c-33.53,0-56.41-32-44.38-61.52.13-.33.27-.67.42-1l95-217.86a141.51,141.51,0,0,0,9.71,15.68,178.83,178.83,0,0,0,39.15,39.52C191.14,401.83,253.61,422.3,323,422.3c68.89,0,131-20.18,174.57-52.47a181.35,181.35,0,0,0,39.08-38.78,145.38,145.38,0,0,0,10.73-17.13l95,217.86c.15.33.29.67.42,1C654.78,562.28,631.9,594.3,598.37,594.3Z"/><path class="cls-2" d="M642.75,532.78a47.47,47.47,0,0,1-44.38,30.37H47.63a47.56,47.56,0,0,1-44-65.79L89.13,291.05a127.4,127.4,0,0,0,9.49,22.87,141.51,141.51,0,0,0,9.71,15.68,178.83,178.83,0,0,0,39.15,39.52C191.14,401.83,253.61,422.3,323,422.3c68.89,0,131-20.18,174.57-52.47a181.35,181.35,0,0,0,39.08-38.78,145.38,145.38,0,0,0,10.73-17.13,127.4,127.4,0,0,0,9.49-22.87l85.46,206.31A47.13,47.13,0,0,1,642.75,532.78Z"/><path class="cls-3" d="M541.13,387.33a23.44,23.44,0,0,1-1.42,3.73c-4.77,9.84-16.55,17.24-31.23,17.24H120.85c-14.69,0-26.47-7.4-31.24-17.24A22,22,0,0,1,89.9,371l.14-.27L110,331.86l3.66-7.13,6-11.62,20.72-40.35c9.31,63.51,87.84,113.1,183.34,113.1,83.85,0,154.61-38.23,176.93-90.54L517,327.25l6,11.68,2.81,5.48L539.42,371A21.92,21.92,0,0,1,541.13,387.33Z"/><path class="cls-4" d="M147.48,369.12c-24.34,16.54-45.45,23-53.86,14.56S91.68,354,108.33,329.6A178.83,178.83,0,0,0,147.48,369.12Z"/><path class="cls-4" d="M550.38,383.68c-8.29,8.29-28.92,2.17-52.81-13.85a181.35,181.35,0,0,0,39.08-38.78C552.58,354.87,558.65,375.41,550.38,383.68Z"/><path class="cls-5" d="M551,207a145,145,0,0,0-20-31.72C490,125.12,412.18,91.3,323,91.3s-166.95,33.82-208,84A145,145,0,0,0,95,207l16.57-74.14,1.33-5.93.14-.63v-.06a108.51,108.51,0,0,1,7.1-22.25c1.19-2.71,2.5-5.4,3.91-8,12.55-23.52,33.55-44.2,60.46-60.28q4.19-2.51,8.56-4.86h0a235.85,235.85,0,0,1,24.32-11.31c1-.41,2-.81,3.07-1.2q8.25-3.16,16.94-5.82,4.68-1.44,9.48-2.71h0Q253.46,8,260.19,6.55C262.73,6,265.3,5.49,267.88,5A305.83,305.83,0,0,1,378.14,5q3.83.72,7.59,1.52,7.14,1.53,14,3.4,4.83,1.29,9.55,2.75,9.4,2.91,18.3,6.41c1.45.58,2.89,1.16,4.32,1.76A230.42,230.42,0,0,1,456.83,33q5,2.82,9.78,5.87c23,14.69,41.36,32.87,53.21,53.34q2.64,4.53,4.83,9.2a109.92,109.92,0,0,1,8.21,24.51c0,.11,0,.23.07.34v.06l1.46,6.52Z"/><polygon class="cls-6" points="409.84 310.36 303.38 269.86 303.38 192.73 333.8 192.73 333.8 260.22 425.05 294.55 409.84 310.36"/><path class="cls-6" d="M551,207a145,145,0,0,0-20-31.72c-26.85-32.77-69.39-58.58-120.54-72.51a332.51,332.51,0,0,0-83.31-11.42l-3.67,0-4.17,0a332.66,332.66,0,0,0-83.81,11.42c-51.15,13.93-93.69,39.74-120.54,72.51A145,145,0,0,0,95,207a119.66,119.66,0,0,0-11,49.31v.52a117.36,117.36,0,0,0,5.13,34.25,127.4,127.4,0,0,0,9.49,22.87,141.51,141.51,0,0,0,9.71,15.68c.54.76,1.08,1.51,1.64,2.26a180.35,180.35,0,0,0,37.51,37.26c22.09,16.55,49,30,79.16,39.18q5.13,1.57,10.4,3a340.65,340.65,0,0,0,171.89,0q5.26-1.41,10.4-3c29.76-9.08,56.33-22.25,78.24-38.47a190.83,190.83,0,0,0,28.22-25.42,161,161,0,0,0,10.86-13.36,145.38,145.38,0,0,0,10.73-17.13,127.4,127.4,0,0,0,9.49-22.87A117.36,117.36,0,0,0,562,256.8v-.52A119.66,119.66,0,0,0,551,207ZM139.39,260.08c0-69.47,82.5-125.78,184.27-125.78s184.27,56.31,184.27,125.78a89.18,89.18,0,0,1-7.34,35.24c-22.32,52.31-93.08,90.54-176.93,90.54-95.5,0-174-49.59-183.34-113.1A86.14,86.14,0,0,1,139.39,260.08Z"/><polygon class="cls-7" points="333.8 260.22 425.05 294.55 409.84 310.36 303.38 269.86 303.38 192.73 333.8 192.73 333.8 260.22"/><path class="cls-7" d="M531.9,211.14a132.62,132.62,0,0,0-18.29-29.07C476,136.14,404.72,105.15,323,105.15s-153,31-190.61,76.92a132.62,132.62,0,0,0-18.29,29.07A109.55,109.55,0,0,0,104,256.32v.48a107.44,107.44,0,0,0,4.7,31.38,116.55,116.55,0,0,0,8.7,21c.71,1.33,1.44,2.66,2.2,4q3.08,5.29,6.69,10.4a164.2,164.2,0,0,0,35.88,36.21c37.94,28.42,91.39,46.77,151.05,48.58q4.86.15,9.78.15t9.81-.15C392,406.49,445.08,388.42,483,360.37a167.77,167.77,0,0,0,34-33.12c.61-.8,1.2-1.6,1.79-2.41a134,134,0,0,0,9.83-15.7,116.55,116.55,0,0,0,8.7-21A107.44,107.44,0,0,0,542,256.8v-.48A109.55,109.55,0,0,0,531.9,211.14ZM323.66,385.86c-95.5,0-174-49.59-183.34-113.1a86.14,86.14,0,0,1-.93-12.68c0-69.47,82.5-125.78,184.27-125.78s184.27,56.31,184.27,125.78a89.18,89.18,0,0,1-7.34,35.24C478.27,347.63,407.51,385.86,323.66,385.86Z"/><path class="cls-6" d="M556.87,291.05A117.36,117.36,0,0,0,562,256.8v-.52A119.66,119.66,0,0,0,551,207a145,145,0,0,0-20-31.72c-26.85-32.77-69.39-58.58-120.54-72.51a332.51,332.51,0,0,0-83.31-11.42l-3.67,0-4.17,0a332.66,332.66,0,0,0-83.81,11.42c-51.15,13.93-93.69,39.74-120.54,72.51A145,145,0,0,0,95,207a119.66,119.66,0,0,0-11,49.31v.52a117.36,117.36,0,0,0,5.13,34.25"/><path class="cls-4" d="M89.39,291.12a118.85,118.85,0,0,1-5.1-21.68,116.92,116.92,0,0,1-.76-22.37,123.6,123.6,0,0,1,11-43.46,151.11,151.11,0,0,1,25-37.43,191.94,191.94,0,0,1,16-15.87,214.48,214.48,0,0,1,17.73-13.92q9.21-6.51,19-12.1t20.08-10.21q10.26-4.64,20.84-8.51c7.06-2.52,14.2-4.84,21.43-6.87a337.81,337.81,0,0,1,177.78,0c7.22,2,14.36,4.35,21.42,6.87s14,5.42,20.85,8.51a236.83,236.83,0,0,1,39.08,22.31,216.16,216.16,0,0,1,17.73,13.92,193.46,193.46,0,0,1,16,15.87,150.71,150.71,0,0,1,25,37.43,123.29,123.29,0,0,1,11,43.45,116.79,116.79,0,0,1-.76,22.36,119.57,119.57,0,0,1-5.09,21.69l-.48-.14a116.83,116.83,0,0,0,4.68-43.78,121.24,121.24,0,0,0-11.71-42.44,149,149,0,0,0-25-36.36A185,185,0,0,0,509.14,153a208.63,208.63,0,0,0-17.6-13.44c-24.4-16.7-51.91-28.58-80.39-36.35a341.21,341.21,0,0,0-175.3,0c-28.48,7.77-56,19.65-80.4,36.35A211.9,211.9,0,0,0,137.85,153a189.48,189.48,0,0,0-15.94,15.36,149,149,0,0,0-25,36.36A121.25,121.25,0,0,0,85.18,247.2,117,117,0,0,0,89.87,291Z"/><path id="Pfad_405" data-name="Pfad 405" class="cls-4" d="M323.66,102.86h-.23C196.22,103,93.2,173.41,93.32,260.24c0,23,7.29,44.81,20.31,64.49,25.69,38.82,73.8,69.24,133,83.57q6.75,1.63,13.67,3a336.12,336.12,0,0,0,126.66,0q6.92-1.35,13.66-3c51.81-12.54,95.09-37.38,122.32-69.37,19.72-23.18,31-50.12,31-78.85C554,173.25,450.87,102.86,323.66,102.86ZM139.39,260.08c0-69.47,82.5-125.78,184.27-125.78s184.27,56.31,184.27,125.78a89.18,89.18,0,0,1-7.34,35.24c-22.32,52.31-93.08,90.54-176.93,90.54-95.5,0-174-49.59-183.34-113.1A86.14,86.14,0,0,1,139.39,260.08Z"/><path class="cls-6" d="M323.66,134.3c-101.77,0-184.27,56.31-184.27,125.78a86.14,86.14,0,0,0,.93,12.68c9.31,63.51,87.84,113.1,183.34,113.1,83.85,0,154.61-38.23,176.93-90.54a89.18,89.18,0,0,0,7.34-35.24C507.93,190.61,425.43,134.3,323.66,134.3Zm-20.28,58.43H333.8v67.49l91.25,34.33-15.21,15.81-106.46-40.5Z"/><polygon class="cls-6" points="409.84 310.36 303.38 269.86 303.38 192.73 333.8 192.73 333.8 260.22 425.05 294.55 409.84 310.36"/><path class="cls-6" d="M80.32,102.74V411.28H567V102.74Zm60,170a86.14,86.14,0,0,1-.93-12.68c0-69.47,82.5-125.78,184.27-125.78s184.27,56.31,184.27,125.78a89.18,89.18,0,0,1-7.34,35.24c-22.32,52.31-93.08,90.54-176.93,90.54C228.16,385.86,149.63,336.27,140.32,272.76Z"/><polygon class="cls-4" points="425.05 294.55 409.84 310.36 303.38 269.86 303.38 192.73 333.8 192.73 333.8 260.22 425.05 294.55"/></g></g></svg>