<svg xmlns="http://www.w3.org/2000/svg" viewBox="0 0 187 156.02"><defs><style>.cls-1{fill:#ccc;}.cls-2{fill:#f25f5f;}.cls-3{fill:#db5a5a;}.cls-4{fill:#f66;stroke:#db5a5a;stroke-miterlimit:10;stroke-width:3px;}</style></defs><title>Asset 42</title><g id="Layer_2" data-name="Layer 2"><g id="Layer_1-2" data-name="Layer 1"><ellipse class="cls-1" cx="93.26" cy="127.86" rx="80.31" ry="28.16"/><path class="cls-2" d="M187,49.21a29.19,29.19,0,0,1-5.43,16.55A51.54,51.54,0,0,1,168,78.91C151,90.77,123.93,98.42,93.5,98.42S36,90.77,19,78.91A50,50,0,0,1,4.57,64.43,28.67,28.67,0,0,1,0,49.21C0,22,41.86,0,93.5,0S187,22,187,49.21Z"/><path class="cls-2" d="M187,105.8c0,22.56-41.86,40.85-93.5,40.85S0,128.36,0,105.8A21,21,0,0,1,4.57,93.16s10,27.61,89,27.61,88-28.71,88-28.71C185.09,96.35,187,101,187,105.8Z"/><path class="cls-3" d="M181.57,65.76v26.3s-9,34.59-88,34.59-89-33.26-89-33.26v-29A50,50,0,0,0,19,78.91C36,90.77,63.07,98.42,93.5,98.42S151,90.77,168,78.91A51.54,51.54,0,0,0,181.57,65.76Z"/><path class="cls-4" d="M172.57,39.37a20.44,20.44,0,0,1-4.66,12.54,42.3,42.3,0,0,1-11.63,10c-14.66,9-37.89,14.78-64,14.78s-49.37-5.8-64-14.78a40.68,40.68,0,0,1-12.36-11,19.87,19.87,0,0,1-3.93-11.53c0-20.58,36-37.28,80.32-37.28S172.57,18.79,172.57,39.37Z"/></g></g></svg>