<svg xmlns="http://www.w3.org/2000/svg" viewBox="0 0 307.55 182.38"><defs><style>.cls-1{isolation:isolate;}.cls-2{fill:#fff;}</style></defs><title>Asset 2</title><g id="Layer_2" data-name="Layer 2"><g id="Layer_1-2" data-name="Layer 1"><g class="cls-1"><path class="cls-2" d="M111.4,123.37H88.84l-6.51,46.28H60.47L67,123.37H44.42l-6.51,46.28H16.05l6.51-46.28H0l2.79-20.93H25.35L29.3,74.53H6.74L9.54,53.6H32.09L38.6,7.32H60.47L54,53.6H76.51L83,7.32h21.86L98.37,53.6h22.56l-2.79,20.93H95.58l-4,27.91h22.56ZM51.16,74.53l-3.95,27.91H69.77l4-27.91Z"/></g><g class="cls-1"><path class="cls-2" d="M147.91,0h9.3c5.35,22.85,5.87,25.75,6.63,30.52H164c.76-4.36,1.4-8.6,5.82-30.52H179c4.88,22.91,5.29,25.11,6.22,30.52h.12c.7-3.95,1.39-7.56,6.8-30.52H201L189.24,41.74h-8.37c-4.3-20.46-5.06-24.53-6.45-32.55h-.12c-1.28,8-2,11-6.45,32.55h-8.14Z"/><path class="cls-2" d="M214.3,41.74h-8.72V0h8.72Z"/><path class="cls-2" d="M222.44,0h21.1c11.11,0,13.14,8.2,13.14,11.8,0,4.59-2.32,8.55-6.45,9.94,3.43,1.51,5.29,2.79,5.29,10.58,0,6.11,0,7.62,1.86,8.32v1.1h-9.65a27.84,27.84,0,0,1-.93-8.43c0-5.7-.35-7.9-6.8-7.9h-9V41.74h-8.55Zm18.78,18.37c4.53,0,6.74-1.57,6.74-5.7,0-2.21-1-5.46-6.1-5.46H231V18.37Z"/></g><g class="cls-1"><path class="cls-2" d="M160.12,111.51H151.4V69.77h29.7v7.38h-21v9.42h18.37V94H160.12Z"/><path class="cls-2" d="M220.35,96.92c0,11-6.63,15.69-17.15,15.69-3.84,0-9.54-.93-13.26-5.06-2.27-2.55-3.14-5.93-3.25-10.11V69.77h8.89V96.86c0,5.81,3.37,8.37,7.44,8.37,6,0,8.43-2.91,8.43-8V69.77h8.9ZM201.51,65h-7.32V58.31h7.32Zm11.34,0h-7.33V58.31h7.33Z"/><path class="cls-2" d="M228.89,69.77H250c11.1,0,13.14,8.19,13.14,11.8,0,4.59-2.33,8.54-6.46,9.94C260.11,93,262,94.3,262,102.09c0,6.1,0,7.62,1.86,8.31v1.11h-9.65a27.89,27.89,0,0,1-.93-8.43c0-5.7-.35-7.91-6.8-7.91h-9v16.34h-8.55Zm18.78,18.37c4.54,0,6.75-1.57,6.75-5.7,0-2.21-1-5.47-6.11-5.47H237.44V88.14Z"/></g><g class="cls-1"><path class="cls-2" d="M182.09,146.91H159.94v8.78h20.35v7.39H159.94v10.81h23.14v7.38H151.4V139.53h30.69Z"/><path class="cls-2" d="M223.6,166.68c0,11-6.62,15.7-17.15,15.7-3.83,0-9.53-.93-13.25-5.06-2.27-2.56-3.14-5.93-3.26-10.12V139.53h8.9v27.09c0,5.82,3.37,8.37,7.44,8.37,6,0,8.43-2.9,8.43-8v-27.5h8.89Z"/><path class="cls-2" d="M258.78,153.19c-.7-2.5-2-7.21-9.25-7.21-4.18,0-10.35,2.79-10.35,14.6,0,7.5,3,14.24,10.35,14.24,4.83,0,8.2-2.73,9.25-7.85h8.72c-1.75,9.07-7.68,15.41-18.14,15.41-11.11,0-19.07-7.5-19.07-21.92,0-14.59,8.43-22,19.18-22,12.5,0,17.56,8.6,18,14.76Z"/><path class="cls-2" d="M282.56,162.55v18.72h-8.73V139.53h8.73v15.81h16.27V139.53h8.72v41.74h-8.72V162.55Z"/></g></g></g></svg>