<svg xmlns="http://www.w3.org/2000/svg" viewBox="0 0 472 981.33"><defs><style>.cls-1{font-size:101.5px;font-family:HelveticaLTStd-Bold, Helvetica LT Std;font-weight:700;}.cls-1,.cls-2{fill:#fff;}</style></defs><title>Asset 72</title><g id="Layer_2" data-name="Layer 2"><g id="Layer_1-2" data-name="Layer 1"><text class="cls-1" transform="translate(86.5 549.73)">Vielen<tspan x="0" y="121.79">Dank!</tspan></text><path class="cls-2" d="M472,93.73V202.78c0,20-14.66,36.22-32.75,36.22H32.75C14.66,239,0,222.79,0,202.78v-109c0-20,14.66-36.22,32.75-36.22H48.29L26,0l89.51,57.51H439.25C457.34,57.51,472,73.72,472,93.73Z"/><path id="Pfad_2230" data-name="Pfad 2230" class="cls-2" d="M112.67,981.33h24.67A12.33,12.33,0,0,0,149.67,969V858a12.33,12.33,0,0,0-12.33-12.33H112.67Zm244.56-87.81a24.45,24.45,0,0,0,2.1-9.86V870.34a24.74,24.74,0,0,0-24.67-24.67H266.83l11.35-57.35a12.33,12.33,0,0,0-1-8.14,59.21,59.21,0,0,0-10.85-15l-5.67-5.8-79.06,79a24.75,24.75,0,0,0-7.27,17.52V952.6a28.87,28.87,0,0,0,28.85,28.73h100a24.84,24.84,0,0,0,21.22-12Z"/></g></g></svg>