<svg xmlns="http://www.w3.org/2000/svg" viewBox="0 0 705 999.02"><defs><style>.cls-1{fill:#fff;}.cls-2{fill:#fcfcfc;}</style></defs><title>Asset 73</title><g id="Layer_2" data-name="Layer 2"><g id="Layer_1-2" data-name="Layer 1"><polygon class="cls-1" points="285.57 57.55 268.73 74.38 268.73 98.24 244.88 98.24 228.04 115.08 211.2 98.24 187.33 98.24 187.33 74.38 170.49 57.55 187.33 40.7 187.33 16.84 211.2 16.84 228.04 0 244.88 16.84 268.73 16.84 268.73 40.7 285.57 57.55"/><path id="Rechteck_311" data-name="Rechteck 311" class="cls-2" d="M31.17,225H673.83C691,225,705,235.49,705,248.45v63.17c0,13-14,23.47-31.17,23.47H31.17C14,335.09,0,324.58,0,311.62V248.45C0,235.49,14,225,31.17,225Z"/><path id="Rechteck_311-2" data-name="Rechteck 311" class="cls-2" d="M31.17,348H673.83C691,348,705,358.49,705,371.45v63.17c0,13-14,23.47-31.17,23.47H31.17C14,458.09,0,447.58,0,434.62V371.45C0,358.49,14,348,31.17,348Z"/><path class="cls-1" d="M651,592a67,67,0,0,1-126.37,31.07L401.11,667.86a53,53,0,0,1-8.94,52.64c15.2,60.6.84,118.38-12.23,173.73-10.71,45.36-3.06,69,2.63,79.18H550.08c8.24,0,14.92,4.5,14.92,10.06V989c0,5.55-6.68,10-14.92,10H153.92c-8.24,0-14.92-4.5-14.92-10v-5.5c0-5.56,6.68-10.06,14.92-10.06h163c6.28-10,15-33.65,3.1-79.51-14.7-56.54-30.91-115.6-12.36-177.62A52.49,52.49,0,0,1,301.45,704L176.36,749.33a67.08,67.08,0,1,1-8.44-18.22l130.65-47.35a53,53,0,0,1,91.79-33.28l127.75-46.3A67,67,0,1,1,651,592Z"/></g></g></svg>